<mxfile host="app.diagrams.net" modified="2024-01-02T11:53:13.502Z" agent="Mozilla/5.0 (X11; Linux x86_64) AppleWebKit/537.36 (KHTML, like Gecko) Chrome/120.0.0.0 Safari/537.36" etag="2wo0RlcIy1ZygrM3Z6yc" version="22.1.16" type="device">
  <diagram name="Seite-1" id="N0C3xxHi64SsO00XTIb9">
    <mxGraphModel dx="773" dy="452" grid="1" gridSize="10" guides="1" tooltips="1" connect="1" arrows="1" fold="1" page="1" pageScale="1" pageWidth="827" pageHeight="1169" math="0" shadow="0">
      <root>
        <mxCell id="0" />
        <mxCell id="1" parent="0" />
        <mxCell id="o0uNSUGcDxUnskPb-Urc-3" value="" style="rounded=1;whiteSpace=wrap;html=1;" vertex="1" parent="1">
          <mxGeometry x="110" y="210" width="160" height="140" as="geometry" />
        </mxCell>
        <mxCell id="o0uNSUGcDxUnskPb-Urc-4" value="&lt;b&gt;&lt;font color=&quot;#990000&quot; style=&quot;font-size: 17px;&quot;&gt;Header&lt;/font&gt;&lt;/b&gt;" style="rounded=1;whiteSpace=wrap;html=1;fillColor=#f5f5f5;fontColor=#333333;strokeColor=#666666;" vertex="1" parent="1">
          <mxGeometry x="110" y="210" width="160" height="40" as="geometry" />
        </mxCell>
        <mxCell id="o0uNSUGcDxUnskPb-Urc-5" value="" style="rounded=1;whiteSpace=wrap;html=1;" vertex="1" parent="1">
          <mxGeometry x="290" y="210" width="200" height="140" as="geometry" />
        </mxCell>
        <mxCell id="o0uNSUGcDxUnskPb-Urc-6" value="&lt;b&gt;&lt;font color=&quot;#cc00cc&quot; style=&quot;font-size: 17px;&quot;&gt;Payload&lt;/font&gt;&lt;/b&gt;" style="rounded=1;whiteSpace=wrap;html=1;fillColor=#f5f5f5;fontColor=#333333;strokeColor=#666666;" vertex="1" parent="1">
          <mxGeometry x="290" y="210" width="200" height="40" as="geometry" />
        </mxCell>
        <mxCell id="o0uNSUGcDxUnskPb-Urc-7" value="" style="rounded=1;whiteSpace=wrap;html=1;" vertex="1" parent="1">
          <mxGeometry x="510" y="210" width="180" height="140" as="geometry" />
        </mxCell>
        <mxCell id="o0uNSUGcDxUnskPb-Urc-8" value="&lt;b&gt;&lt;font color=&quot;#00cc00&quot; style=&quot;font-size: 17px;&quot;&gt;Signature&lt;/font&gt;&lt;/b&gt;" style="rounded=1;whiteSpace=wrap;html=1;fillColor=#f5f5f5;fontColor=#333333;strokeColor=#666666;" vertex="1" parent="1">
          <mxGeometry x="510" y="210" width="180" height="40" as="geometry" />
        </mxCell>
        <mxCell id="o0uNSUGcDxUnskPb-Urc-9" value="&lt;div&gt;&lt;font face=&quot;Courier New&quot;&gt;{&lt;/font&gt;&lt;/div&gt;&lt;div&gt;&lt;font face=&quot;Courier New&quot;&gt;&amp;nbsp; &quot;alg&quot;: &quot;HS256&quot;,&lt;/font&gt;&lt;/div&gt;&lt;div&gt;&lt;font face=&quot;Courier New&quot;&gt;&amp;nbsp; &quot;typ&quot;: &quot;JWT&quot;&lt;/font&gt;&lt;/div&gt;&lt;div&gt;&lt;font face=&quot;Courier New&quot;&gt;}&lt;/font&gt;&lt;/div&gt;" style="text;html=1;strokeColor=none;fillColor=none;align=left;verticalAlign=middle;whiteSpace=wrap;rounded=0;" vertex="1" parent="1">
          <mxGeometry x="120" y="270" width="140" height="60" as="geometry" />
        </mxCell>
        <mxCell id="o0uNSUGcDxUnskPb-Urc-10" value="&lt;div&gt;&lt;font face=&quot;Courier New&quot;&gt;{&lt;/font&gt;&lt;/div&gt;&lt;div&gt;&lt;font face=&quot;Courier New&quot;&gt;&amp;nbsp; &quot;sub&quot;: &quot;1234567890&quot;,&lt;/font&gt;&lt;/div&gt;&lt;div&gt;&lt;font face=&quot;Courier New&quot;&gt;&amp;nbsp; &quot;name&quot;: &quot;Martin Thoma&quot;,&lt;/font&gt;&lt;/div&gt;&lt;div&gt;&lt;font face=&quot;Courier New&quot;&gt;&amp;nbsp; &quot;iat&quot;: 1704194111&lt;/font&gt;&lt;/div&gt;&lt;div&gt;&lt;font face=&quot;Courier New&quot;&gt;}&lt;/font&gt;&lt;/div&gt;" style="text;html=1;strokeColor=none;fillColor=none;align=left;verticalAlign=middle;whiteSpace=wrap;rounded=0;" vertex="1" parent="1">
          <mxGeometry x="300" y="260" width="190" height="80" as="geometry" />
        </mxCell>
        <mxCell id="o0uNSUGcDxUnskPb-Urc-12" value="HMAC-SHA256&amp;nbsp; of Header and Payload" style="text;html=1;strokeColor=none;fillColor=none;align=center;verticalAlign=middle;whiteSpace=wrap;rounded=0;" vertex="1" parent="1">
          <mxGeometry x="510" y="250" width="180" height="100" as="geometry" />
        </mxCell>
        <mxCell id="o0uNSUGcDxUnskPb-Urc-13" value="&lt;font style=&quot;font-size: 20px;&quot;&gt;+ secret key&lt;/font&gt;" style="text;html=1;strokeColor=none;fillColor=none;align=center;verticalAlign=middle;whiteSpace=wrap;rounded=0;fontFamily=Helvetica;" vertex="1" parent="1">
          <mxGeometry x="268" y="350" width="120" height="30" as="geometry" />
        </mxCell>
        <mxCell id="o0uNSUGcDxUnskPb-Urc-14" value="&lt;font style=&quot;font-size: 20px;&quot;&gt;+&lt;/font&gt;" style="text;html=1;strokeColor=none;fillColor=none;align=center;verticalAlign=middle;whiteSpace=wrap;rounded=0;fontFamily=Helvetica;" vertex="1" parent="1">
          <mxGeometry x="270" y="270" width="20" height="30" as="geometry" />
        </mxCell>
        <mxCell id="o0uNSUGcDxUnskPb-Urc-15" value="&lt;font style=&quot;font-size: 20px;&quot;&gt;=&lt;/font&gt;" style="text;html=1;strokeColor=none;fillColor=none;align=center;verticalAlign=middle;whiteSpace=wrap;rounded=0;fontFamily=Helvetica;" vertex="1" parent="1">
          <mxGeometry x="490" y="265" width="20" height="30" as="geometry" />
        </mxCell>
        <mxCell id="o0uNSUGcDxUnskPb-Urc-17" value="" style="group" vertex="1" connectable="0" parent="1">
          <mxGeometry x="110" y="40" width="580" height="100" as="geometry" />
        </mxCell>
        <mxCell id="o0uNSUGcDxUnskPb-Urc-1" value="" style="rounded=1;whiteSpace=wrap;html=1;" vertex="1" parent="o0uNSUGcDxUnskPb-Urc-17">
          <mxGeometry width="580" height="100" as="geometry" />
        </mxCell>
        <mxCell id="o0uNSUGcDxUnskPb-Urc-2" value="&lt;div style=&quot;font-size: 16px;&quot;&gt;&lt;font face=&quot;Courier New&quot; style=&quot;font-size: 16px;&quot;&gt;&lt;font color=&quot;#990000&quot;&gt;&lt;b&gt;eyJhbGciOiAiSFMyNTYiLCAidHlwIjogIkpXVCJ9&lt;/b&gt;&lt;/font&gt;.&lt;font color=&quot;#cc00cc&quot;&gt;&lt;b&gt;eyJzdWIiOiAiMTIz&lt;/b&gt;&lt;/font&gt;&lt;/font&gt;&lt;/div&gt;&lt;div style=&quot;font-size: 16px;&quot;&gt;&lt;font color=&quot;#cc00cc&quot; face=&quot;Courier New&quot; style=&quot;font-size: 16px;&quot;&gt;&lt;b&gt;NDU2Nzg5MCIsICJuYW1lIjogIk1hcnRpbiBUaG9tYSIsICJpYXQiOiAxN&lt;/b&gt;&lt;/font&gt;&lt;/div&gt;&lt;div style=&quot;font-size: 16px;&quot;&gt;&lt;font style=&quot;font-size: 16px;&quot;&gt;&lt;font color=&quot;#cc00cc&quot; face=&quot;Courier New&quot;&gt;&lt;b&gt;zA0MTk0MTExfQ&lt;/b&gt;&lt;/font&gt;&lt;font face=&quot;rEXTHFskJYraVr-q1fnp&quot;&gt;.&lt;/font&gt;&lt;font face=&quot;Courier New&quot; style=&quot;font-size: 16px;&quot; color=&quot;#00cc00&quot;&gt;&lt;b&gt;ycvWtAw4l8ydKO7sDBwzhMOCnSA8O1Mz6pJZOYdBRWw&lt;/b&gt;&lt;/font&gt;&lt;/font&gt;&lt;/div&gt;" style="text;html=1;strokeColor=none;fillColor=none;align=center;verticalAlign=middle;whiteSpace=wrap;rounded=0;" vertex="1" parent="o0uNSUGcDxUnskPb-Urc-17">
          <mxGeometry x="10" width="560" height="100" as="geometry" />
        </mxCell>
        <mxCell id="o0uNSUGcDxUnskPb-Urc-18" value="&lt;font size=&quot;1&quot; style=&quot;&quot;&gt;&lt;b style=&quot;font-size: 33px;&quot;&gt;JSON Web Token (JWT)&lt;/b&gt;&lt;/font&gt;" style="text;html=1;strokeColor=none;fillColor=none;align=center;verticalAlign=middle;whiteSpace=wrap;rounded=0;" vertex="1" parent="1">
          <mxGeometry x="110" y="140" width="580" height="70" as="geometry" />
        </mxCell>
      </root>
    </mxGraphModel>
  </diagram>
</mxfile>
